:SAMPLES-PER-SECOND 30
:FULLY-SPECIFIED
:DEGREES
397
root  -8.69909 37.8859 -11.281 157.344 -73.9819 -162.539
RightUpLeg  -20.4406 -14.6203 1.04288
RightLeg  36.0209 -5.81457 -4.80202
RightFoot  -7.48049 -0.0510291 -0.062904
RightToes  0.000482159 0.542163 -0.142577
Spine  12.7702 -4.35271 14.6731
Spine1  12.9078 -2.11054 -0.409917
HEad  1.81364 8.25294 -10.0959
LeftShoulder1  9.28695 -13.9339 -46.4616
LeftArm  -8.70204 12.8591 -24.2639
LeftForeArm  43.2754 -77.1794 -56.0404
LeftHand  -0.25398 0.0180481 5.50724
RightShoulder  4.6853 8.68618 32.4946
RightArm  -11.5453 -26.0374 20.1354
RightForeArm  37.3254 76.4116 113.223
RightHand  1.02071 -10.3221 -24.3586
LeftUpLeg  -10.6524 4.03492 6.92892
LeftLeg  70.6161 0.719019 3.20246
LeftFoot  9.10704 0.53362 -3.29847
LeftToes  1.06245e-005 4.65856e-005 -8.18503e-006
398
root  -10.2473 38.2707 -12.0991 157.812 -74.3931 -163.25
RightUpLeg  -16.4745 -15.3385 0.529876
RightLeg  35.1146 -5.70919 -4.57566
RightFoot  -10.0452 -0.0657716 -0.33098
RightToes  0.000482159 0.542163 -0.142577
Spine  13.0656 -3.98673 14.3656
Spine1  12.6323 -1.72231 -0.606316
HEad  2.92371 8.23898 -9.74295
LeftShoulder1  9.24885 -13.8604 -46.4667
LeftArm  -9.28245 12.721 -24.4649
LeftForeArm  41.1445 -76.8354 -53.7725
LeftHand  -0.25398 0.0180481 5.50724
RightShoulder  4.68884 8.66095 32.6035
RightArm  -11.2659 -25.0675 20.4541
RightForeArm  32.803 76.8794 107.865
RightHand  1.13224 -11.0295 -23.6334
LeftUpLeg  -16.143 5.92702 5.27183
LeftLeg  69.2411 0.105586 1.13816
LeftFoot  5.77423 0.689591 -4.78882
LeftToes  1.06245e-005 4.65856e-005 -8.18503e-006
399
root  -11.8039 38.6392 -12.926 159.406 -74.3326 -164.846
RightUpLeg  -12.4956 -15.7661 0.0438716
RightLeg  33.4069 -5.44076 -4.12182
RightFoot  -12.2623 -0.0856546 -0.539417
RightToes  0.000482159 0.542163 -0.142577
Spine  13.1448 -3.28555 13.654
Spine1  12.1297 -1.14202 -0.905611
HEad  4.03544 8.28825 -9.43676
LeftShoulder1  9.14961 -13.7444 -46.2715
LeftArm  -9.69693 12.6728 -24.6303
LeftForeArm  40.0239 -76.6245 -52.462
LeftHand  -0.25398 0.0180481 5.50724
RightShoulder  4.67765 8.62412 32.6282
RightArm  -10.8372 -24.3533 20.8787
RightForeArm  28.4828 77.1802 103.052
RightHand  1.2095 -11.5832 -23.0012
LeftUpLeg  -20.9133 8.43831 3.3074
LeftLeg  64.5841 -0.395131 -0.240459
LeftFoot  3.78989 0.643657 -5.01096
LeftToes  1.06245e-005 4.65856e-005 -8.18503e-006
400
root  -13.3208 38.9522 -13.714 161.184 -74.0551 -166.816
RightUpLeg  -8.26443 -16.0692 -0.744976
RightLeg  31.2651 -4.96181 -3.50165
RightFoot  -13.8503 -0.0878451 0.245912
RightToes  0.000482159 0.542163 -0.142577
Spine  13.5714 -2.57001 12.8413
Spine1  11.6589 -0.450795 -1.61952
HEad  4.64786 8.19265 -9.11262
LeftShoulder1  9.05034 -13.668 -45.9642
LeftArm  -9.94153 12.4124 -24.6001
LeftForeArm  39.9807 -76.5844 -52.1503
LeftHand  -0.25398 0.0180481 5.50724
RightShoulder  4.70176 8.66766 32.6882
RightArm  -10.5541 -23.8313 21.3932
RightForeArm  24.8552 77.3656 98.7971
RightHand  1.18364 -11.6091 -22.4627
LeftUpLeg  -24.2723 11.4827 1.25991
LeftLeg  56.9112 -1.05081 -1.21958
LeftFoot  1.59108 0.610748 -5.49867
LeftToes  1.06245e-005 4.65856e-005 -8.18503e-006
401
root  -14.8262 39.0719 -14.4277 161.412 -73.659 -167.183
RightUpLeg  -4.50193 -16.6005 -1.24877
RightLeg  29.9364 -4.4427 -3.01268
RightFoot  -15.4945 -0.087061 0.546911
RightToes  0.000482159 0.542163 -0.142577
Spine  13.9528 -2.08632 12.7182
Spine1  11.5114 0.14854 -2.45942
HEad  4.68676 8.19127 -8.89693
LeftShoulder1  8.97748 -13.6439 -45.6478
LeftArm  -10.2676 11.9933 -24.4214
LeftForeArm  40.3787 -76.6363 -52.3985
LeftHand  -0.25398 0.0180481 5.50724
RightShoulder  4.77048 8.80786 32.8063
RightArm  -10.2466 -23.1809 21.7567
RightForeArm  21.9402 77.4726 95.0557
RightHand  1.0966 -11.2719 -22.0744
LeftUpLeg  -26.2335 15.0049 -0.499882
LeftLeg  46.4551 -1.69401 -1.51682
LeftFoot  -0.270655 0.649694 -6.66415
LeftToes  1.06245e-005 4.65856e-005 -8.18503e-006
402
root  -16.3456 39.0676 -15.0808 161.39 -72.9768 -166.792
RightUpLeg  -1.50639 -16.8866 -1.31798
RightLeg  28.9937 -4.18133 -2.75351
RightFoot  -17.3942 -0.124453 -0.124412
RightToes  0.000482159 0.542163 -0.142577
Spine  13.6972 -1.62287 12.8757
Spine1  11.7325 0.71349 -3.3646
HEad  4.32243 8.68525 -8.68473
LeftShoulder1  8.86869 -13.5833 -45.2394
LeftArm  -10.7806 11.5744 -24.4177
LeftForeArm  40.4373 -76.6524 -52.5068
LeftHand  -0.25398 0.0180481 5.50724
RightShoulder  4.84387 8.94285 32.9756
RightArm  -9.65686 -22.1919 21.7917
RightForeArm  19.4679 77.5181 92.0775
RightHand  1.06221 -11.1626 -21.8224
LeftUpLeg  -27.4362 19.458 -2.74759
LeftLeg  33.2124 -2.40393 -0.966109
LeftFoot  -0.641703 0.597631 -6.35009
LeftToes  1.06245e-005 4.65856e-005 -8.18503e-006
403
root  -17.8474 39.0147 -15.693 162.087 -72.0481 -166.89
RightUpLeg  1.28911 -16.3954 -1.36362
RightLeg  27.6577 -4.08841 -2.56413
RightFoot  -19.1999 -0.123756 0.0566978
RightToes  0.000482159 0.542163 -0.142577
Spine  13.3639 -1.16287 12.5908
Spine1  12.2213 1.29748 -4.27751
HEad  3.70987 9.82356 -8.3385
LeftShoulder1  8.66206 -13.4159 -44.5956
LeftArm  -11.3937 11.2515 -24.8574
LeftForeArm  40.1831 -76.6112 -52.2795
LeftHand  -0.25398 0.0180481 5.50724
RightShoulder  4.89276 9.02773 33.1017
RightArm  -8.89192 -20.9186 21.7183
RightForeArm  16.6974 77.5263 89.2345
RightHand  1.11823 -11.5767 -21.441
LeftUpLeg  -26.9602 21.0487 -3.58102
LeftLeg  17.4423 0.93108 -1.32426
LeftFoot  -0.304389 0.495451 -5.10485
LeftToes  1.06245e-005 4.65856e-005 -8.18503e-006
404
root  -19.435 38.7666 -16.2905 160.411 -71.0647 -165.239
RightUpLeg  4.81029 -15.7417 -1.21553
RightLeg  26.8102 -3.9361 -2.3971
RightFoot  -21.0933 -0.0313123 1.31211
RightToes  0.000482159 0.542163 -0.142577
Spine  13.8486 -1.0494 12.5845
Spine1  12.6245 1.64004 -4.7296
HEad  3.06448 11.2897 -7.96762
LeftShoulder1  8.40258 -13.2224 -43.7186
LeftArm  -11.9029 11.1082 -25.5835
LeftForeArm  40.2513 -76.6079 -52.2204
LeftHand  -0.25398 0.0180481 5.50724
RightShoulder  4.92961 9.14143 33.0425
RightArm  -8.18921 -19.6275 21.783
RightForeArm  13.2864 77.4957 85.7814
RightHand  1.19114 -12.1848 -20.8051
LeftUpLeg  -22.8099 10.576 3.16406
LeftLeg  1.87507 17.8888 -5.64695
LeftFoot  -1.94663 0.392581 -4.65112
LeftToes  1.06245e-005 4.65856e-005 -8.18503e-006
405
root  -21.1755 38.297 -16.883 156.074 -70.0904 -161.363
RightUpLeg  8.76756 -15.6241 -0.671582
RightLeg  27.0776 -3.99305 -2.45569
RightFoot  -23.2462 0.0319257 1.83946
RightToes  0.000482159 0.542163 -0.142577
Spine  14.536 -1.07639 12.9276
Spine1  12.7786 1.59405 -4.30978
HEad  2.67184 12.5829 -7.61061
LeftShoulder1  8.19114 -13.1371 -42.7853
LeftArm  -12.0679 11.138 -26.1901
LeftForeArm  40.8321 -76.7 -52.7277
LeftHand  -0.25398 0.0180481 5.50724
RightShoulder  4.97808 9.32573 32.8604
RightArm  -7.48504 -18.5539 21.7445
RightForeArm  9.77853 77.4186 82.2535
RightHand  1.21125 -12.4937 -20.2615
LeftUpLeg  -21.1663 6.08785 6.46437
LeftLeg  -6.07979 27.242 -8.48042
LeftFoot  -5.61937 0.239897 -3.81333
LeftToes  1.06245e-005 4.65856e-005 -8.18503e-006
406
root  -22.8792 37.8465 -17.5086 153.407 -70.0591 -158.583
RightUpLeg  11.8616 -15.8426 -0.47625
RightLeg  27.755 -4.56566 -2.84833
RightFoot  -25.2191 0.181193 2.8351
RightToes  0.000482159 0.542163 -0.142577
Spine  14.9999 -1.04447 11.2797
Spine1  13.2768 1.23861 -2.94186
HEad  2.5716 13.4781 -6.99403
LeftShoulder1  8.06411 -13.152 -42.0361
LeftArm  -11.8417 11.017 -26.5086
LeftForeArm  41.2047 -76.7754 -53.1986
LeftHand  -0.25398 0.0180481 5.50724
RightShoulder  5.04159 9.49827 32.8337
RightArm  -6.66547 -17.6799 21.3221
RightForeArm  6.24519 77.3016 79.021
RightHand  1.17496 -12.3459 -20.1014
LeftUpLeg  -21.8834 6.81456 6.55811
LeftLeg  -5.64117 29.6192 -8.38199
LeftFoot  -4.44336 -0.0417704 0.457967
LeftToes  1.06245e-005 4.65856e-005 -8.18503e-006
407
root  -24.4744 37.4142 -18.1565 153.947 -70.9533 -158.57
RightUpLeg  13.1857 -15.9692 -1.47687
RightLeg  30.3883 -4.07008 -2.79615
RightFoot  -26.3282 0.762087 7.16791
RightToes  0.000482159 0.542163 -0.142577
Spine  15.8667 -0.593267 7.23174
Spine1  13.5141 0.662761 -0.692573
HEad  2.29601 13.9743 -6.00513
LeftShoulder1  8.02016 -13.2069 -41.6427
LeftArm  -11.4664 10.1327 -26.5822
LeftForeArm  39.84 -76.5442 -51.8757
LeftHand  -0.25398 0.0180481 5.50724
RightShoulder  5.12925 9.61871 33.1449
RightArm  -6.15364 -16.9029 20.903
RightForeArm  1.82364 77.0866 74.8204
RightHand  1.09229 -11.9166 -19.9604
LeftUpLeg  -24.4008 8.74496 5.10813
LeftLeg  -0.209095 27.7804 -6.44966
LeftFoot  4.39832 -1.11738 7.64846
LeftToes  1.06245e-005 4.65856e-005 -8.18503e-006
408
root  -25.975 37.0015 -18.7349 156.808 -72.1855 -161.086
RightUpLeg  11.8252 -16.0476 -3.72376
RightLeg  37.6537 -2.60599 -2.43848
RightFoot  -23.6299 1.16589 12.563
RightToes  0.000482159 0.542163 -0.142577
Spine  18.1441 0.200919 2.88073
Spine1  12.5906 0.0848996 1.6659
HEad  1.14346 13.9571 -5.12135
LeftShoulder1  8.13415 -13.4479 -41.6323
LeftArm  -11.2314 7.97609 -26.2666
LeftForeArm  35.2702 -75.6014 -47.1698
LeftHand  -0.25398 0.0180481 5.50724
RightShoulder  5.28981 9.83112 33.7216
RightArm  -6.70185 -16.1735 21.0976
RightForeArm  -3.6377 76.6415 68.6667
RightHand  0.981651 -11.4939 -19.2871
LeftUpLeg  -29.3583 16.4181 -0.723498
LeftLeg  8.99372 16.1695 -1.86515
LeftFoot  13.8445 -3.0864 13.4894
LeftToes  1.06245e-005 4.65856e-005 -8.18503e-006
409
root  -27.2483 36.8203 -19.1228 160.441 -73.5246 -164.762
RightUpLeg  6.92328 -16.0507 -6.03064
RightLeg  49.2623 -2.47905 -3.52205
RightFoot  -13.6774 0.248166 12.8706
RightToes  0.000482159 0.542163 -0.142577
Spine  22.6187 0.587683 0.183344
Spine1  11.2311 -0.177611 2.30144
HEad  -1.22244 13.3554 -4.98838
LeftShoulder1  8.46508 -14.0845 -41.7674
LeftArm  -11.2898 4.43574 -25.556
LeftForeArm  27.8501 -73.5365 -39.6324
LeftHand  -0.25398 0.0180481 5.50724
RightShoulder  5.54111 10.2667 34.2867
RightArm  -8.44499 -14.9886 21.8902
RightForeArm  -9.5515 75.8354 61.0993
RightHand  0.874267 -11.2324 -18.0964
LeftUpLeg  -33.8146 24.6583 -8.54086
LeftLeg  15.5114 3.62536 1.36714
LeftFoot  16.8934 -4.30355 16.6461
LeftToes  1.06245e-005 4.65856e-005 -8.18503e-006
